<?xml version="1.0" encoding="UTF-8" standalone="no"?>
<!-- Created with Inkscape (http://www.inkscape.org/) -->

<svg
   width="219.92281mm"
   height="224.89583mm"
   viewBox="0 0 219.92282 224.89584"
   version="1.1"
   id="svg5"
   inkscape:version="1.1.1 (c3084ef, 2021-09-22)"
   sodipodi:docname="Logo ALM EÌvreux Basket - 2021.svg"
   xmlns:inkscape="http://www.inkscape.org/namespaces/inkscape"
   xmlns:sodipodi="http://sodipodi.sourceforge.net/DTD/sodipodi-0.dtd"
   xmlns="http://www.w3.org/2000/svg"
   xmlns:svg="http://www.w3.org/2000/svg">
  <sodipodi:namedview
     id="namedview7"
     pagecolor="#ffffff"
     bordercolor="#666666"
     borderopacity="1.0"
     inkscape:pageshadow="2"
     inkscape:pageopacity="0.0"
     inkscape:pagecheckerboard="0"
     inkscape:document-units="px"
     showgrid="false"
     inkscape:zoom="0.47215208"
     inkscape:cx="515.72366"
     inkscape:cy="446.88991"
     inkscape:window-width="1440"
     inkscape:window-height="752"
     inkscape:window-x="0"
     inkscape:window-y="25"
     inkscape:window-maximized="0"
     inkscape:current-layer="layer1"
     showguides="false" />
  <defs
     id="defs2" />
  <g
     inkscape:label="Calque 1"
     inkscape:groupmode="layer"
     id="layer1"
     transform="translate(-53.508038,140.30938)">
    <path
       id="path7200"
       style="fill:#232454;fill-opacity:1;stroke:none;stroke-width:0.0527518;stroke-linecap:butt;stroke-linejoin:miter;stroke-miterlimit:4;stroke-dasharray:none;stroke-opacity:1"
       d="m 153.50097,-140.30916 c -8.91097,0.024 -18.13934,2.29086 -27.31088,8.21825 5.34985,3.9172 11.18318,7.83449 17.08404,11.75169 -18.06781,-0.50752 -31.68751,2.4398 -42.29981,7.51662 -27.856134,13.326103 -40.856982,36.297375 -47.466282,60.030372 l 16.889838,-9.081133 a 98.399953,98.399953 0 0 0 -12.580575,48.06026 98.399953,98.399953 0 0 0 98.399559,98.39956 98.399953,98.399953 0 0 0 62.70094,-22.628653 l 0.001,9.99e-4 c 13.128,-6.637082 26.86703,-14.438192 31.30487,-29.033562 -0.91917,-3.242939 -1.73664,-6.792144 -2.31201,-11.066538 A 98.399953,98.399953 0 0 0 252.46254,6.4303591 L 266.518,-16.846358 c 2.17188,-10.028006 4.0139,-19.6156 6.91285,-30.613028 l -30.95252,-13.681458 a 98.399953,98.399953 0 0 0 -3.65141,-6.122091 c 2.14834,-17.613089 -2.50503,-29.185074 -8.29707,-37.218325 -6.73724,-9.34418 -16.10858,-15.32874 -26.81892,-18.52442 -12.53909,-6.55488 -30.60586,-17.35638 -50.20999,-17.30351 z" />
    <g
       id="g10108"
       transform="matrix(0.99688377,0,0,0.99688377,0.16674321,-0.43723586)"
       style="stroke:none">
      <path
         style="fill:#efb412;fill-opacity:1;stroke:none;stroke-width:0.079375;stroke-linecap:butt;stroke-linejoin:miter;stroke-miterlimit:4;stroke-dasharray:none;stroke-opacity:1"
         d="m 88.0385,-25.841873 c -0.616516,-21.461593 6.083337,-38.075236 18.2527,-50.368827 7.72424,-7.803099 19.20854,-12.82807 36.94447,-13.234005 l -10.50708,-5.883963 c 24.24145,-1.493779 46.91703,11.105274 69.90708,20.874056 l -22.428,-24.127717 23.47761,15.849865 -7.03338,-17.632976 30.31287,22.288875 -8.71742,-9.906167 c -5.50073,-12.128898 -12.95266,-21.240238 -21.97308,-27.925908 -16.54886,-12.26552 -37.48532,-24.68795 -63.12089,-15.95841 l 32.98753,19.71327 c -16.13619,-3.78076 -29.1369,-4.27216 -39.93445,-2.45227 -32.70615,5.5125 -53.816611,24.40529 -63.386858,52.973721 10.847973,-10.410526 24.756977,-21.704769 36.553752,-25.062601 -7.152091,9.572086 -10.792766,20.094746 -12.805929,28.027606 -3.392641,13.368692 -1.814449,24.80697 1.471075,32.825451 z"
         id="path1923"
         sodipodi:nodetypes="csccccccccsccsccsc" />
      <path
         id="path2396"
         style="fill:#efb412;fill-opacity:1;stroke:none;stroke-width:0.2;stroke-linecap:butt;stroke-linejoin:miter;stroke-miterlimit:4;stroke-dasharray:none;stroke-opacity:1"
         d="m 591.44141,204.11914 47.125,100.60352 -189.0293,-69.36328 -46.06445,-20.91602 34.94531,53.47852 -123.10547,28.85742 c 38.02877,26.41957 84.58582,41.87337 129.19531,59.83203 l -3.70703,95.04492 87.10156,-27.53516 11.11914,41.03711 8.20704,-40.50781 c 19.036,32.47506 37.92509,61.92874 57.97851,115.42969 18.50385,-36.31227 25.77084,-75.54493 45.54102,-109.54688 5.43462,-9.34676 11.66297,-18.25731 19.05664,-26.53125 l -11.64844,21.44336 c 14.90098,-5.26447 30.01795,-6.64056 45.27148,-5.55859 -45.85541,9.36776 -52.88808,24.47354 -59.03711,39.71094 17.77331,-12.95235 35.88986,-12.85149 54.00782,-12.70704 -50.99452,12.26439 -57.7251,25.79369 -60.09766,39.44727 18.79691,-12.8596 37.59371,-12.38582 56.39063,-12.17969 -42.37126,8.84528 -57.87909,20.9051 -59.03907,34.68164 21.73145,-6.10764 48.43644,-16.76785 73.69336,-23.18359 18.26816,-4.64047 37.23383,-7.96064 57.6211,-8.58594 10.32533,-30.49885 2.76779,-44.06818 -5.56641,-47.55664 -4.1715,-1.74608 -13.07749,-0.82752 -21.70312,12.08203 -10.9222,-16.48239 -21.16419,-32.91798 -18.26563,-56.65625 41.94716,17.69036 69.39656,17.25343 98.4668,2.22657 6.25632,-3.25874 12.73711,-10.43333 19.87304,-10.69922 l -152.22851,-61.41992 33.62305,8.47265 -1.0586,-52.68555 -31.24023,30.71094 z m -25.43946,98.7793 c 2.02231,-0.0161 4.04351,0.0522 6.0625,0.19922 26.88635,1.95725 46.64393,19.94077 69.97461,35.37109 19.04614,12.59664 38.47807,23.3659 59.22461,21.89648 -18.52928,9.21959 -42.37791,8.77192 -66.27148,8.23829 l 17.97265,17.22265 c -18.64728,5.41904 -39.36302,6.95672 -57.2832,5.22852 -17.33355,-1.67163 -33.6533,-5.95172 -46.99023,-19.83008 l 28.83007,-15.35156 c -5.17492,-9.08051 -15.72162,-16.82658 -24.44726,-23.43946 -6.39765,-4.84856 -13.42613,-8.38261 -21.79102,-9.13281 l -8.05078,-5.42969 c 14.3725,-10.59571 28.61341,-14.85981 42.76953,-14.97265 z"
         transform="matrix(0.26458334,0,0,0.26458334,44.889442,-147.02348)" />
      <path
         style="fill:#efb412;fill-opacity:1;stroke:none;stroke-width:0.0529167;stroke-linecap:butt;stroke-linejoin:miter;stroke-miterlimit:4;stroke-dasharray:none;stroke-opacity:1"
         d="m 236.77188,-77.482194 -14.51254,-11.936931 c -2.5509,-11.406915 -7.42737,-20.824105 -17.88063,-27.489605 19.75678,6.79699 30.97799,21.403216 32.39317,39.426536 z"
         id="path3288"
         sodipodi:nodetypes="cccc" />
      <path
         style="fill:#efb412;fill-opacity:1;stroke:none;stroke-width:0.0529167;stroke-linecap:butt;stroke-linejoin:miter;stroke-miterlimit:4;stroke-dasharray:none;stroke-opacity:1"
         d="m 270.10613,-42.463898 c -2.98889,-0.782478 -5.02522,0.99525 -6.59036,4.036073 -2.68954,5.225353 -4.78022,11.357244 -6.33719,20.283565 1.05604,0.549105 2.08385,1.326603 3.06193,1.913175 2.57043,1.531423 3.67601,-0.941103 4.71441,-3.597225 2.7695,-8.246817 4.36129,-15.708492 5.15121,-22.635588 z"
         id="path4175"
         sodipodi:nodetypes="cscccc" />
      <path
         style="fill:#efb412;fill-opacity:1;stroke:none;stroke-width:0.0529167;stroke-linecap:butt;stroke-linejoin:miter;stroke-miterlimit:4;stroke-dasharray:none;stroke-opacity:1"
         d="m 205.76558,18.161836 c 1.62055,4.294224 2.22786,8.70103 2.67466,13.12567 2.70438,1.87889 5.43625,3.647824 8.27165,5.002615 -0.7023,-5.789845 -5.09859,-12.788169 -10.94631,-18.128285 z"
         id="path4581"
         sodipodi:nodetypes="cccc" />
      <path
         style="fill:#efb412;fill-opacity:1;stroke:none;stroke-width:0.0529167;stroke-linecap:butt;stroke-linejoin:miter;stroke-miterlimit:4;stroke-dasharray:none;stroke-opacity:1"
         d="m 200.71343,18.95433 3.3681,7.08291 c -2.71492,4.507305 -4.07357,9.163203 -5.64652,13.670509 l 10.25289,-2.97185 0.84202,1.188739 c -0.23795,1.592744 -0.46655,3.068763 -0.44578,5.308298 -4.06153,1.557351 -8.12305,2.807377 -12.18458,3.706313 -0.62853,10.067918 1.69005,17.268369 5.9437,22.586059 l -1.63452,2.674665 c -9.74653,-1.856241 -14.35781,-9.536599 -13.27426,-23.675738 -5.03943,1.224377 -10.41941,1.200031 -15.84987,0.990619 -5.98129,13.798515 -15.01285,25.006488 -23.67606,33.730169 -0.43365,0.582546 -0.89671,0.692889 -1.53834,0.763195 -2.74828,0.298385 -5.49853,-0.342254 -3.36489,-3.04129 7.98414,-9.443133 16.2686,-19.72392 21.10014,-32.095978 -4.64158,-0.07043 -9.82396,-1.222443 -15.2555,-2.872787 -14.03672,18.636797 -31.20475,21.278155 -41.31369,23.554554 -1.91954,0.498885 -1.85813,0.402222 -2.83508,-0.160023 -4.97368,-2.868016 -7.397254,-6.414904 -6.580658,-7.515221 0.422587,-0.569411 2.003388,-0.623055 5.260128,0.06962 0.74919,-0.09069 1.48973,-0.189772 2.2216,-0.297261 15.51015,-2.277967 27.12612,-8.332103 34.67887,-18.326331 C 130.86086,39.32003 121.94449,34.244127 114.08356,28.795364 103.04411,19.500285 90.7814,10.111481 81.414236,0.30873672 74.861493,-6.5848749 69.263184,-15.11181 67.846709,-23.046861 c -1.204744,-6.748943 0.200436,-12.504135 3.492196,-19.66469 l 0.6439,0.495311 0.842026,-1.535457 c 4.026979,14.723657 10.983387,26.392339 19.588141,36.342032 14.791428,17.1033535 33.165748,32.000049 52.479218,42.857766 5.37671,-10.67911 6.85506,-18.747334 0.99937,-32.1215009 -7.6567,-17.4876441 -25.37278,-36.9431831 -40.12873,-59.8572511 2.78178,-2.906082 5.71281,-5.613157 10.05476,-6.439009 4.55728,9.419591 8.4624,14.766723 11.80151,18.463099 5.35573,5.928762 7.1506,8.566001 12.05433,15.038736 14.62293,19.301693 22.6726,48.922859 13.39134,68.432614 4.49252,2.486165 9.50479,2.893324 14.51254,3.318566 7.07374,-18.718618 10.62963,-40.0504917 8.46977,-65.62835 1.68279,-0.163847 3.40542,-0.367527 5.34933,-0.792493 l 4.55684,9.856634 c -0.62569,18.753625 -3.48487,37.59659 -10.69866,56.613739 4.29726,-0.224266 7.83099,-0.219472 14.61159,-1.188739 2.87557,-7.489128 5.89586,-14.960166 10.84725,-22.189816 z"
         id="path4820"
         sodipodi:nodetypes="ccccccccccccccccccscscccscccscsccsscccccccc" />
      <path
         style="fill:#efb412;fill-opacity:1;stroke:none;stroke-width:0.0529167;stroke-linecap:butt;stroke-linejoin:miter;stroke-miterlimit:4;stroke-dasharray:none;stroke-opacity:1"
         d="m 217.976,37.760958 c 9.57897,-4.257122 19.56338,-4.730163 29.7,-3.782546 -3.7295,12.901514 -17.83289,20.100069 -31.94151,26.758016 4.04131,-3.65202 8.4315,-7.113735 10.50708,-11.837971 -3.72029,3.331125 -8.11885,5.983986 -12.95873,8.195519 1.70355,-6.374757 4.00181,-12.45216 4.69316,-19.333018 z"
         id="path6871"
         sodipodi:nodetypes="cccccc" />
    </g>
    <path
       style="fill:#e8162b;fill-opacity:1;stroke:none;stroke-width:0.0527518;stroke-linecap:butt;stroke-linejoin:miter;stroke-miterlimit:4;stroke-dasharray:none;stroke-opacity:1"
       d="m 198.81917,-52.873216 c 2.67787,-1.56013 4.99471,-1.967899 7.02726,-1.470087 2.27136,0.5563 4.18771,2.243472 5.85617,4.71713 -1.44901,1.07427 -5.12144,1.039989 -7.13355,0.562572 -2.18238,-0.517823 -4.01342,-1.803412 -5.74988,-3.809615 z"
       id="path3850"
       sodipodi:nodetypes="cscsc" />
    <g
       id="g12542"
       transform="matrix(0.99688377,0,0,0.99688377,-249.05389,-0.43723586)"
       style="fill:#ffffff;stroke:none">
      <path
         style="fill:#ffffff;stroke-width:0.264583;stroke:none"
         d="m 480.38067,10.732099 c 1.17145,-2.3978074 3.87631,-9.193951 5.44858,-13.6899419 0.5089,-1.4552085 1.23567,-3.3437304 1.61505,-4.1967154 0.63151,-1.4198627 0.70911,-1.4986318 0.91857,-0.9324102 0.18774,0.5075 0.2731,0.5484019 0.47574,0.227965 0.13581,-0.2147782 0.24876,-0.6654245 0.25099,-1.0014348 0.006,-0.8883439 0.44396,-0.4770041 0.64751,0.6080046 0.25586,1.3638637 0.82646,1.1519245 1.4168,-0.526243 l 0.27922,-0.7937501 0.0209,0.8442802 c 0.0276,1.1154914 0.42324,1.3150296 0.96574,0.4870689 0.55341,-0.8446136 0.79993,-0.8424334 1.24711,0.011033 0.28378,0.5416101 0.41501,0.6092772 0.64144,0.3307292 0.15656,-0.1926061 0.3384,-0.5883196 0.40408,-0.8793613 0.0944,-0.4182587 0.23383,-0.2796223 0.66531,0.6614584 l 0.54589,1.1906251 0.31509,-0.8598959 c 0.40394,-1.1023945 0.67651,-1.0859004 1.09309,0.066146 0.39605,1.0952375 0.75773,1.2060662 0.75773,0.2321878 0,-0.5867612 0.0613,-0.6430196 0.39687,-0.3644795 0.32504,0.2697613 0.39688,0.2516823 0.39688,-0.099896 0,-0.4986232 0.55047,-0.5667164 0.9942,-0.1229836 0.23199,0.231992 0.40527,0.2241338 0.71438,-0.032398 0.22445,-0.1862747 0.40809,-0.2499943 0.40809,-0.1415971 0,0.1083971 0.18457,0.043908 0.41016,-0.1433116 0.33613,-0.2789634 0.47661,-0.2728727 0.77839,0.033748 0.42552,0.4323504 0.35131,0.8594752 -1.58217,9.10539808 -1.08524,4.62834602 -1.98763,9.20869672 -1.98763,10.08882512 0,0.593157 0.62403,0.396778 1.1875,-0.3737 1.87725,-2.5669189 10.18016,-20.597592 9.78178,-21.242194 -3.13735,-2.610141 -6.56209,-4.709223 -10.93308,-4.716162 -7.5369,0.01185 -17.20204,1.776609 -23.18724,2.767261 -10.73684,1.783789 -15.83452,2.7789925 -15.55701,3.0371517 0.11615,0.1080479 3.1681,0.804344 6.78212,1.5473205 5.18675,1.0663054 7.09802,1.35087 9.07301,1.35087 h 2.50207 l -0.1882,2.0505211 c -0.1035,1.1277865 -0.19777,5.44380249 -0.20947,9.5911466 -0.0164,5.7911131 0.0597,7.6827101 0.32791,8.1530221 0.48678,0.853724 0.8333,0.49361 2.18263,-2.268289 z"
         id="path11902"
         sodipodi:nodetypes="ssssscsscsssssscssssssssssssscccssscsssss" />
      <path
         style="fill:#ffffff;stroke-width:0.264583;stroke:none"
         d="m 493.0113,27.7246 c 0.0447,-0.03573 0.47969,-2.846237 0.96675,-6.245577 1.55322,-10.84056 2.10451,-18.4061566 1.33516,-18.3230774 -0.1445,0.01561 -0.5684,0.5513864 -0.94199,1.1906251 -0.72784,1.2453673 -4.00305,9.0495263 -5.84198,13.9202803 -0.88454,2.342854 -1.19342,2.908115 -1.46565,2.682182 -0.25326,-0.210185 -0.37534,-0.190449 -0.45939,0.07427 -0.35834,1.128726 -0.38509,1.155129 -0.56631,0.558964 -0.26617,-0.87567 -0.56262,-0.727106 -0.79194,0.396875 l -0.20243,0.992188 -0.31392,-1.058333 c -0.39622,-1.335824 -0.984,-1.365616 -1.30501,-0.06615 -0.30377,1.229717 -0.68094,1.29078 -0.68094,0.110244 0,-1.284873 -0.27448,-1.361239 -0.93844,-0.261094 l -0.58688,0.972415 -0.43923,-0.849381 c -0.51976,-1.005107 -0.94586,-0.869627 -0.94586,0.300739 0,0.803582 -0.0152,0.815305 -0.38064,0.293566 -0.20936,-0.298892 -0.46039,-0.861166 -0.55785,-1.249495 -0.24195,-0.963997 -0.50507,-0.886662 -0.9735,0.286131 l -0.3963,0.992187 -0.5369,-1.190625 c -0.3492,-0.77438 -0.58588,-1.051877 -0.67698,-0.79375 -0.077,0.218281 -0.19964,0.575469 -0.27244,0.79375 -0.0728,0.218281 -0.14215,0.03969 -0.15412,-0.396875 -0.0883,-3.222752 -2.89455,-19.1566894 -3.62137,-20.5622065 -0.86304,-1.6689336 -1.50591,-0.41123927 -2.05775,4.0257469 -0.486,3.9076183 -1.07877,14.1137706 -0.85378,14.7000876 0.10668,0.278003 0.0521,0.34481 -0.17088,0.20897 -0.29825,-0.181732 -4.54011,-3.540096 -8.52955,-6.753016 -0.87299,-0.70307 -1.61845,-1.184749 -1.65656,-1.070399 -0.0381,0.11435 2.2143,4.594858 5.00537,9.956682 l 5.07467,9.748772 c 8.4276,-1.124051 17.1752,-2.157327 23.93664,-3.384696 z"
         id="path11900"
         sodipodi:nodetypes="csssssssscsssscssssscssssssssssscc" />
    </g>
  </g>
</svg>
